<svg width="33" height="41" viewBox="0 0 33 41" fill="none" xmlns="http://www.w3.org/2000/svg">
<g clip-path="url(#clip0_252_971)">
<path d="M10.5271 12.5505L16.6761 7.1095C18.2749 8.91346 21.5543 10.7465 22.7431 12.6741C23.8254 14.4272 22.6776 19.3517 22.8005 22.0431C22.9235 24.7345 24.2435 27.4914 23.6532 30.3719L26.1538 30.0518L26.8015 29.1717C27.5312 24.7709 25.2028 19.6427 29.8022 16.5658C30.2777 17.1186 32.6718 18.8571 32.6718 19.0971V40.5556H18.734L18.775 34.4817C14.1837 31.463 12.6096 37.2677 14.6347 40.5556H0.688689L0 24.3635L3.56643 20.1882C4.55027 19.9627 7.24764 23.2288 7.24764 23.4616V35.8274L8.48564 36.9113L10.5271 35.8274V12.5505ZM17.8977 15.8238L15.0118 16.5294L14.6265 20.9156H17.8977V15.8238ZM17.8977 24.5527C13.0933 23.6725 13.4704 31.0338 17.9059 29.2735V24.5527H17.8977Z" fill="#C3803C"/>
<path d="M25.2356 0.635557L25.334 2.65047L30.204 2.73776L28.7447 4.549L30.204 6.36023L17.4551 4.91997L17.9142 0.555542L25.2356 0.635557Z" fill="#C3803C"/>
</g>
<defs>
<clipPath id="clip0_252_971">
<rect width="32.6636" height="40" fill="white" transform="translate(0 0.555542)"/>
</clipPath>
</defs>
</svg>
