<svg width="33" height="41" viewBox="0 0 33 41" fill="none" xmlns="http://www.w3.org/2000/svg">
<path d="M10.6355 12.5505L16.8479 7.10947C18.4631 8.91343 21.7764 10.7465 22.9774 12.6741C24.0708 14.4272 22.9111 19.3517 23.0354 22.0431C23.1596 24.7345 24.4932 27.4914 23.8968 30.3719L26.4232 30.0518L27.0776 29.1717C27.8148 24.7709 25.4623 19.6427 30.1092 16.5657C30.5896 17.1186 33.0083 18.8571 33.0083 19.0971V40.5555H18.927L18.9684 34.4817C14.3298 31.463 12.7395 37.2677 14.7854 40.5555H0.695783L0 24.3635L3.60316 20.1882C4.59714 19.9627 7.32229 23.2288 7.32229 23.4615V35.8274L8.57304 36.9112L10.6355 35.8274V12.5505ZM18.0821 15.8238L15.1664 16.5294L14.7771 20.9156H18.0821V15.8238ZM18.0821 24.5526C13.2282 23.6725 13.6092 31.0338 18.0904 29.2735V24.5526H18.0821Z" fill="#D4A373"/>
<path d="M25.4955 0.635557L25.5949 2.65047L30.515 2.73776L29.0406 4.549L30.515 6.36023L17.6348 4.91997L18.0986 0.555542L25.4955 0.635557Z" fill="#D4A373"/>
</svg>
