<svg width="33" height="30" viewBox="0 0 33 30" fill="none" xmlns="http://www.w3.org/2000/svg">
<path d="M23.0188 8.36843C23.1096 8.58399 24.5561 8.59534 24.2781 10.2574C24.0002 11.9195 22.6501 12.2768 22.3324 12.9122C21.6007 14.3757 22.3551 16.934 20.0294 17.0305C21.5099 19.464 21.0277 21.4154 24.5618 21.5629L22.2984 22.686L30.2287 22.9867C31.2271 23.3838 33.689 27.434 32.5261 28.1034L16.3365 29.5555L0.169649 28.3586C0.0618702 21.3189 5.15585 22.669 10.3803 22.6804L8.11694 21.5572L11.4411 20.9049C12.292 18.2898 11.8949 15.4989 10.6186 13.0653C10.3803 12.6115 9.40462 12.5491 9.05859 11.7777C7.63477 8.60668 9.71094 8.51025 9.8017 8.1075C10.2328 6.26391 9.37626 3.99487 11.2028 2.2307C13.7668 -0.248223 20.8859 -0.106408 22.4345 3.53539C23.189 5.31091 22.4799 7.08643 23.0188 8.36276V8.36843Z" fill="#D4A373"/>
</svg>
