<svg width="33" height="30" viewBox="0 0 33 30" fill="none" xmlns="http://www.w3.org/2000/svg">
<path d="M22.8509 8.36843C22.9416 8.58399 24.3881 8.59534 24.1102 10.2574C23.8322 11.9195 22.4821 12.2768 22.1645 12.9122C21.4327 14.3757 22.1872 16.934 19.8614 17.0305C21.3419 19.464 20.8598 21.4154 24.3938 21.5629L22.1304 22.686L30.0607 22.9867C31.0591 23.3838 33.521 27.434 32.3581 28.1034L16.1685 29.5555L0.00168055 28.3586C-0.106099 21.3189 4.98788 22.669 10.2123 22.6804L7.94897 21.5572L11.2731 20.9049C12.124 18.2898 11.7269 15.4989 10.4506 13.0653C10.2123 12.6115 9.23665 12.5491 8.89062 11.7777C7.4668 8.60668 9.54297 8.51025 9.63373 8.1075C10.0648 6.26391 9.20829 3.99487 11.0349 2.2307C13.5989 -0.248223 20.718 -0.106408 22.2666 3.53539C23.021 5.31091 22.312 7.08643 22.8509 8.36276V8.36843Z" fill="#C3803C"/>
</svg>
