<svg width="33" height="36" viewBox="0 0 33 36" fill="none" xmlns="http://www.w3.org/2000/svg">
<path d="M27.8778 0C29.1037 0 30.2793 0.486983 31.1462 1.35382C32.013 2.22065 32.5 3.39633 32.5 4.62222V13.1556C32.5 14.3814 32.013 15.5571 31.1462 16.424C30.2793 17.2908 29.1037 17.7778 27.8778 17.7778H22.9C21.6741 17.7778 20.4984 17.2908 19.6316 16.424C18.7648 15.5571 18.2778 14.3814 18.2778 13.1556V4.62222C18.2778 3.39633 18.7648 2.22065 19.6316 1.35382C20.4984 0.486983 21.6741 0 22.9 0H27.8778ZM27.8778 21.3333C29.1037 21.3333 30.2793 21.8203 31.1462 22.6872C32.013 23.554 32.5 24.7297 32.5 25.9556V30.9333C32.5 32.1592 32.013 33.3349 31.1462 34.2017C30.2793 35.0686 29.1037 35.5556 27.8778 35.5556H22.9C21.6741 35.5556 20.4984 35.0686 19.6316 34.2017C18.7648 33.3349 18.2778 32.1592 18.2778 30.9333V25.9556C18.2778 24.7297 18.7648 23.554 19.6316 22.6872C20.4984 21.8203 21.6741 21.3333 22.9 21.3333H27.8778ZM10.1 0C11.3259 0 12.5016 0.486983 13.3684 1.35382C14.2352 2.22065 14.7222 3.39633 14.7222 4.62222V9.6C14.7222 10.8259 14.2352 12.0016 13.3684 12.8684C12.5016 13.7352 11.3259 14.2222 10.1 14.2222H5.12222C4.51522 14.2222 3.91417 14.1027 3.35337 13.8704C2.79258 13.6381 2.28303 13.2976 1.85382 12.8684C1.4246 12.4392 1.08414 11.9296 0.851847 11.3688C0.619558 10.8081 0.5 10.207 0.5 9.6V4.62222C0.5 4.01522 0.619558 3.41417 0.851847 2.85337C1.08414 2.29258 1.4246 1.78303 1.85382 1.35382C2.28303 0.924604 2.79258 0.584134 3.35337 0.351846C3.91417 0.119557 4.51522 0 5.12222 0H10.1ZM10.1 17.7778C11.3259 17.7778 12.5016 18.2648 13.3684 19.1316C14.2352 19.9984 14.7222 21.1741 14.7222 22.4V30.9333C14.7222 32.1592 14.2352 33.3349 13.3684 34.2017C12.5016 35.0686 11.3259 35.5556 10.1 35.5556H5.12222C4.51522 35.5556 3.91417 35.436 3.35337 35.2037C2.79258 34.9714 2.28303 34.631 1.85382 34.2017C1.4246 33.7725 1.08414 33.263 0.851847 32.7022C0.619558 32.1414 0.5 31.5403 0.5 30.9333V22.4C0.5 21.793 0.619558 21.1919 0.851847 20.6312C1.08414 20.0704 1.4246 19.5608 1.85382 19.1316C2.28303 18.7024 2.79258 18.3619 3.35337 18.1296C3.91417 17.8973 4.51522 17.7778 5.12222 17.7778H10.1Z" fill="#D4A373"/>
</svg>
