<svg width="33" height="36" viewBox="0 0 33 36" fill="none" xmlns="http://www.w3.org/2000/svg">
<path d="M27.7098 0C28.9357 0 30.1114 0.486983 30.9782 1.35382C31.845 2.22065 32.332 3.39633 32.332 4.62222V13.1556C32.332 14.3814 31.845 15.5571 30.9782 16.424C30.1114 17.2908 28.9357 17.7778 27.7098 17.7778H22.732C21.5061 17.7778 20.3305 17.2908 19.4636 16.424C18.5968 15.5571 18.1098 14.3814 18.1098 13.1556V4.62222C18.1098 3.39633 18.5968 2.22065 19.4636 1.35382C20.3305 0.486983 21.5061 0 22.732 0H27.7098ZM27.7098 21.3333C28.9357 21.3333 30.1114 21.8203 30.9782 22.6872C31.845 23.554 32.332 24.7297 32.332 25.9556V30.9333C32.332 32.1592 31.845 33.3349 30.9782 34.2017C30.1114 35.0686 28.9357 35.5556 27.7098 35.5556H22.732C21.5061 35.5556 20.3305 35.0686 19.4636 34.2017C18.5968 33.3349 18.1098 32.1592 18.1098 30.9333V25.9556C18.1098 24.7297 18.5968 23.554 19.4636 22.6872C20.3305 21.8203 21.5061 21.3333 22.732 21.3333H27.7098ZM9.93203 0C11.1579 0 12.3336 0.486983 13.2004 1.35382C14.0673 2.22065 14.5543 3.39633 14.5543 4.62222V9.6C14.5543 10.8259 14.0673 12.0016 13.2004 12.8684C12.3336 13.7352 11.1579 14.2222 9.93203 14.2222H4.95425C4.34726 14.2222 3.7462 14.1027 3.1854 13.8704C2.62461 13.6381 2.11506 13.2976 1.68585 12.8684C1.25664 12.4392 0.916166 11.9296 0.683878 11.3688C0.45159 10.8081 0.332031 10.207 0.332031 9.6V4.62222C0.332031 4.01522 0.45159 3.41417 0.683878 2.85337C0.916166 2.29258 1.25664 1.78303 1.68585 1.35382C2.11506 0.924604 2.62461 0.584134 3.1854 0.351846C3.7462 0.119557 4.34726 0 4.95425 0H9.93203ZM9.93203 17.7778C11.1579 17.7778 12.3336 18.2648 13.2004 19.1316C14.0673 19.9984 14.5543 21.1741 14.5543 22.4V30.9333C14.5543 32.1592 14.0673 33.3349 13.2004 34.2017C12.3336 35.0686 11.1579 35.5556 9.93203 35.5556H4.95425C4.34726 35.5556 3.7462 35.436 3.1854 35.2037C2.62461 34.9714 2.11506 34.631 1.68585 34.2017C1.25664 33.7725 0.916166 33.263 0.683878 32.7022C0.45159 32.1414 0.332031 31.5403 0.332031 30.9333V22.4C0.332031 21.793 0.45159 21.1919 0.683878 20.6312C0.916166 20.0704 1.25664 19.5608 1.68585 19.1316C2.11506 18.7024 2.62461 18.3619 3.1854 18.1296C3.7462 17.8973 4.34726 17.7778 4.95425 17.7778H9.93203Z" fill="#C3803C"/>
</svg>
