<svg xmlns="http://www.w3.org/2000/svg" width="49" height="49" viewBox="0 0 49 49" fill="none">
    <path d="M24.4876 0C10.9602 0 0 10.9602 0 24.4876C0 38.015 10.9602 48.9752 24.4876 48.9752C38.015 48.9752 48.9752 38.015 48.9752 24.4876C48.9752 10.9602 38.015 0 24.4876 0ZM24.4876 9.47907C29.2864 9.47907 33.1767 13.3694 33.1767 18.1682C33.1767 22.967 29.2864 26.8574 24.4876 26.8574C19.6888 26.8574 15.7984 22.967 15.7984 18.1682C15.7984 13.3694 19.6888 9.47907 24.4876 9.47907ZM24.4876 43.4457C18.6915 43.4457 13.4978 40.8192 10.0221 36.7116C11.8785 33.2162 15.5121 30.807 19.7481 30.807C19.985 30.807 20.222 30.8465 20.4491 30.9156C21.7327 31.3303 23.0756 31.5969 24.4876 31.5969C25.8996 31.5969 27.2523 31.3303 28.5261 30.9156C28.7532 30.8465 28.9902 30.807 29.2271 30.807C33.4631 30.807 37.0967 33.2162 38.953 36.7116C35.4774 40.8192 30.2837 43.4457 24.4876 43.4457Z" fill="#679869"/>
</svg>